<?xml version="1.0" standalone="no"?>
<!DOCTYPE svg PUBLIC "-//W3C//DTD SVG 20010904//EN"
 "http://www.w3.org/TR/2001/REC-SVG-20010904/DTD/svg10.dtd">
<svg version="1.0" xmlns="http://www.w3.org/2000/svg"
 width="880.000000pt" height="683.000000pt" viewBox="0 0 880.000000 683.000000"
 preserveAspectRatio="xMidYMid meet">

<g transform="translate(0.000000,683.000000) scale(0.100000,-0.100000)"
fill="#000000" stroke="none">
<path d="M4679 6412 c-36 -3 -94 -45 -115 -84 -5 -10 -22 -19 -38 -20 -26 -2
-34 -9 -84 -78 -2 -2 -6 0 -10 6 -12 18 -46 9 -74 -19 -15 -15 -33 -27 -41
-27 -8 0 -21 -7 -28 -16 -8 -9 -30 -27 -49 -40 -19 -12 -53 -39 -75 -58 -58
-53 -67 -60 -89 -71 -11 -6 -31 -26 -44 -45 -17 -26 -29 -34 -47 -32 -16 2
-27 -4 -35 -17 -6 -12 -16 -21 -23 -21 -6 0 -20 -9 -32 -19 -11 -11 -56 -52
-100 -92 -44 -40 -87 -84 -96 -98 -29 -48 -44 -55 -93 -42 -25 6 -77 11 -117
11 -63 0 -70 -2 -59 -15 10 -12 10 -21 1 -41 -15 -34 -15 -32 22 -66 24 -23
27 -29 11 -24 -15 5 -26 -1 -42 -24 -13 -16 -30 -30 -39 -30 -29 0 -104 -51
-114 -76 -5 -14 -13 -22 -19 -19 -9 6 -83 -43 -121 -80 -9 -8 -20 -15 -26 -15
-6 0 -13 -7 -17 -15 -3 -8 -12 -15 -20 -15 -8 0 -29 -18 -46 -40 -17 -22 -37
-40 -43 -40 -6 0 -32 -20 -57 -43 -27 -27 -62 -49 -88 -56 -26 -7 -42 -17 -39
-24 6 -17 91 -11 202 13 50 10 117 22 150 25 33 4 114 20 180 37 66 17 156 36
200 44 44 7 96 16 115 20 l35 7 -20 -23 c-37 -43 -61 -65 -89 -84 -73 -47
-279 -244 -301 -286 -9 -17 -21 -30 -28 -30 -11 0 -86 -75 -218 -217 -21 -23
-39 -48 -39 -54 0 -7 -16 -31 -35 -55 -19 -23 -35 -47 -35 -53 0 -5 -9 -16
-20 -24 -53 -37 -117 -172 -127 -266 -9 -88 13 -211 48 -266 16 -25 37 -48 46
-52 10 -3 39 -25 64 -49 37 -34 64 -48 130 -68 130 -38 166 -42 192 -18 12 10
30 24 41 29 14 8 -1 14 -75 28 -139 26 -204 56 -272 123 -44 43 -61 69 -72
107 -20 74 -25 159 -10 208 30 101 217 372 314 456 28 25 51 50 51 57 0 6 9
14 20 17 11 3 23 13 27 23 4 10 34 44 67 74 32 30 91 87 130 125 39 39 101 93
137 120 36 28 104 82 150 121 81 68 87 71 160 83 41 6 100 19 130 28 30 8 110
24 179 34 69 10 148 24 175 30 28 5 66 13 85 16 19 3 40 9 46 14 6 5 51 14
100 20 49 6 96 17 105 25 12 11 18 11 27 2 9 -9 15 -9 24 0 7 7 23 12 36 12
15 0 26 7 29 20 6 23 21 26 29 6 5 -12 10 -12 35 2 25 15 31 15 38 3 8 -12 12
-12 25 -2 35 29 58 9 133 -109 41 -63 96 -158 124 -210 28 -52 55 -98 60 -101
12 -7 -66 -98 -121 -140 -47 -36 -227 -184 -393 -322 -53 -45 -96 -86 -94 -92
2 -5 14 -12 28 -16 29 -8 17 -12 -31 -9 -34 2 -34 1 -17 -17 9 -11 17 -27 17
-36 0 -9 7 -33 16 -54 9 -21 20 -47 24 -58 4 -11 19 -44 34 -73 14 -30 26 -61
26 -71 0 -15 41 -153 57 -191 4 -8 7 -24 9 -35 5 -49 23 -118 33 -128 6 -6 11
-21 11 -33 0 -11 11 -41 23 -65 13 -24 30 -68 37 -96 9 -34 19 -53 32 -56 10
-3 18 -15 19 -29 3 -64 8 -87 25 -119 19 -35 44 -98 44 -111 0 -16 -36 -7 -95
22 -33 16 -68 30 -77 30 -9 0 -30 8 -46 17 -24 14 -38 15 -68 7 -42 -10 -41
-7 -29 -94 3 -19 7 -64 9 -100 1 -36 4 -69 5 -75 2 -5 2 -12 1 -15 -1 -3 -3
-85 -3 -183 -2 -205 3 -194 -105 -227 -72 -22 -215 -27 -318 -10 -205 33 -394
141 -448 254 -33 69 -61 191 -77 324 -9 80 -8 141 1 268 14 193 14 196 33 254
15 44 15 44 25 20 5 -14 17 -31 25 -38 8 -7 20 -26 27 -42 12 -30 45 -44 34
-15 -4 8 -2 15 4 15 5 0 12 -22 16 -50 5 -35 13 -53 26 -60 11 -6 20 -15 20
-21 0 -18 63 -169 70 -169 4 0 5 -11 3 -24 -4 -20 0 -25 26 -31 l31 -7 0 -73
c0 -90 12 -125 41 -125 21 0 22 3 17 84 -3 47 -4 87 -1 90 3 3 29 -6 58 -19
29 -13 69 -23 89 -22 32 1 36 4 36 27 0 38 -18 56 -75 75 -46 16 -69 20 -147
24 -24 1 -29 9 -57 94 -32 96 -61 215 -61 256 0 20 4 23 28 18 15 -3 35 -9 46
-13 14 -5 17 -3 14 12 -2 11 -25 30 -53 45 -27 14 -52 33 -53 43 -4 16 1 17
46 11 40 -5 50 -4 55 9 10 24 -3 46 -29 51 -78 16 -78 16 -63 26 7 5 23 9 35
9 12 0 31 9 44 20 13 11 34 20 47 20 25 0 32 27 11 48 -14 14 -84 16 -93 2 -3
-5 -32 -17 -63 -26 -57 -17 -95 -38 -142 -79 -42 -37 -441 -205 -489 -205 -26
0 -113 -59 -105 -71 12 -20 155 13 304 71 41 16 94 35 118 42 23 7 42 16 42
20 0 5 4 8 9 8 5 0 4 -18 -2 -41 -7 -30 -7 -47 1 -59 7 -12 7 -21 0 -28 -15
-15 -28 -254 -19 -346 4 -42 4 -79 0 -84 -7 -7 1 -63 20 -140 6 -23 9 -53 5
-66 -3 -13 -1 -27 5 -30 6 -4 11 -16 11 -28 0 -11 9 -31 20 -46 13 -16 17 -28
10 -32 -12 -7 2 -53 23 -78 9 -12 12 -11 19 5 7 17 8 16 6 -2 -4 -46 31 -85
77 -85 7 0 23 -12 35 -27 22 -28 187 -116 200 -108 4 3 13 -2 20 -10 10 -12 7
-15 -17 -21 -15 -3 -73 -22 -128 -41 -55 -19 -124 -41 -154 -49 -30 -8 -68
-21 -85 -28 -50 -22 -290 -78 -316 -74 -19 2 -26 11 -32 42 -10 45 -72 167
-97 190 -51 46 -223 75 -316 54 -30 -6 -32 -5 -75 75 -24 45 -58 105 -76 132
-17 28 -42 71 -53 95 -12 25 -35 60 -52 79 -28 30 -35 33 -73 28 -23 -3 -49
-9 -57 -12 -11 -4 -28 17 -62 78 l-47 83 18 35 c10 19 26 46 36 61 9 14 20 53
23 85 3 32 10 66 15 76 8 16 21 133 20 182 -3 102 -64 293 -114 358 -21 27
-38 56 -38 64 0 8 -13 32 -30 53 -17 21 -30 48 -30 60 0 14 -21 44 -56 79 -76
77 -84 86 -84 98 0 16 -99 73 -126 73 -14 0 -23 4 -20 9 3 4 18 6 33 3 25 -5
27 -4 14 12 -28 33 -136 108 -207 142 -40 19 -75 34 -78 32 -2 -2 -13 6 -25
16 -18 16 -25 17 -47 8 -13 -7 -39 -12 -57 -12 -32 0 -52 -10 -126 -65 -30
-23 -41 -39 -46 -67 -4 -22 -12 -38 -20 -38 -23 0 -59 -155 -49 -208 3 -16 0
-48 -7 -73 -7 -24 -12 -47 -11 -51 1 -4 3 -36 5 -73 3 -50 8 -69 23 -80 19
-14 18 -15 -3 -21 -19 -5 -20 -9 -10 -32 7 -15 20 -36 29 -46 19 -21 23 -36
10 -36 -11 0 -9 -29 5 -66 6 -16 19 -56 28 -89 21 -71 45 -105 86 -122 26 -11
28 -15 19 -32 -8 -17 -4 -26 28 -58 20 -21 46 -45 57 -54 11 -8 43 -41 70 -72
95 -108 340 -230 426 -213 24 5 29 2 29 -15 0 -18 4 -20 33 -14 17 4 49 16 69
26 52 27 72 25 64 -5 -4 -15 3 -40 19 -70 29 -54 31 -84 10 -112 -19 -25 -19
-65 0 -90 8 -10 15 -31 15 -46 0 -15 4 -29 9 -32 11 -7 132 -190 155 -234 22
-42 21 -48 -13 -62 -55 -22 -74 -53 -76 -122 l-2 -63 94 -93 c51 -51 93 -96
93 -101 0 -5 22 -24 49 -41 27 -18 58 -45 70 -61 38 -52 139 -119 177 -119 29
0 38 -6 55 -34 29 -50 92 -90 126 -82 16 4 35 7 43 7 43 1 96 31 111 63 15 33
15 34 -10 32 -26 -1 -43 18 -18 20 6 0 20 2 31 2 15 2 17 7 12 32 -4 22 -1 32
9 36 8 4 15 14 15 24 0 10 12 23 29 30 39 16 90 88 71 100 -15 9 39 47 125 84
l54 25 63 -67 c35 -36 130 -133 211 -215 123 -124 152 -148 170 -143 12 3 30
6 39 6 10 0 46 41 90 102 39 57 88 121 107 144 20 23 58 69 85 103 28 33 53
61 57 61 5 0 16 16 25 35 9 19 20 35 24 35 4 0 10 -27 14 -60 7 -57 8 -60 34
-60 15 0 34 5 42 10 13 9 13 11 0 19 -9 6 -16 35 -21 81 -3 39 -9 73 -13 77
-3 3 -17 1 -31 -5 -28 -13 -34 -2 -10 18 21 17 20 20 -25 80 -22 29 -40 57
-40 60 0 6 148 60 165 60 4 0 5 -33 2 -74 -4 -61 -2 -76 10 -81 30 -11 40 16
54 143 15 137 19 638 6 685 -11 41 -6 40 201 -36 41 -16 42 -15 42 4 0 14 5
19 18 17 9 -2 16 -11 16 -21 -2 -18 22 -22 45 -8 12 8 13 14 2 37 -12 27 -96
254 -112 304 -4 14 -23 66 -43 117 -41 107 -86 269 -86 307 0 15 -9 44 -20 66
-11 22 -20 46 -20 53 0 19 -63 212 -95 292 -14 35 -25 67 -25 72 0 4 15 18 33
30 17 13 50 40 73 60 22 21 69 58 105 82 35 24 80 59 99 77 32 29 138 110 200
152 25 17 92 82 121 117 24 29 76 75 85 75 4 0 28 19 54 43 150 136 179 146
180 60 0 -18 4 -33 9 -33 9 0 21 -61 25 -130 2 -25 9 -67 16 -95 13 -54 15
-75 12 -175 -1 -36 -1 -101 0 -145 2 -73 -6 -219 -17 -305 -2 -19 -8 -96 -13
-170 -4 -75 -11 -141 -15 -146 -3 -6 -11 -76 -17 -155 -6 -79 -19 -180 -30
-224 -10 -44 -24 -123 -30 -175 -7 -52 -16 -107 -21 -122 -5 -18 -4 -30 4 -35
6 -4 93 -6 192 -4 99 1 192 0 207 -4 25 -6 26 -9 16 -29 -6 -11 -24 -36 -39
-54 -16 -18 -29 -37 -29 -43 0 -10 -63 -113 -83 -135 -7 -7 -34 -44 -62 -83
-27 -39 -54 -70 -60 -70 -5 0 -26 20 -45 45 -51 66 -217 224 -235 224 -8 0
-15 -4 -15 -8 0 -5 52 -69 116 -143 63 -74 125 -151 136 -171 17 -29 28 -38
49 -38 22 0 33 9 55 48 30 51 104 142 116 142 4 0 10 -11 14 -24 3 -15 15 -27
30 -30 13 -4 24 -13 24 -20 0 -16 105 -126 120 -126 5 0 12 -11 16 -25 3 -14
18 -35 33 -48 27 -24 42 -45 63 -86 11 -21 9 -26 -17 -48 -17 -13 -57 -40 -90
-61 -33 -20 -96 -66 -141 -102 -76 -62 -206 -131 -220 -117 -4 3 -9 26 -11 51
-4 32 -9 43 -19 39 -21 -8 -40 8 -21 19 19 10 16 80 -3 86 -9 3 -11 -1 -7 -12
4 -9 2 -16 -2 -16 -14 0 -23 33 -11 40 17 11 -13 114 -85 290 -35 85 -66 166
-70 180 -8 28 -40 86 -63 112 -13 15 -17 16 -34 3 -11 -7 -27 -11 -34 -8 -21
8 -17 -12 9 -44 13 -15 29 -44 37 -63 7 -19 21 -42 31 -52 11 -9 16 -23 13
-32 -6 -17 52 -164 88 -224 25 -41 60 -154 50 -163 -28 -25 -462 -173 -554
-189 -35 -6 -97 -20 -138 -31 -41 -11 -104 -24 -140 -30 -91 -14 -100 -18
-110 -45 -6 -14 -15 -22 -23 -18 -16 6 -31 -45 -21 -71 4 -8 2 -21 -4 -28 -16
-19 -50 -221 -43 -255 1 -8 -6 -30 -15 -50 -12 -25 -20 -71 -24 -139 l-5 -101
23 2 c13 2 27 8 30 13 4 6 25 13 47 16 56 7 78 13 115 32 24 12 35 14 40 5 8
-13 40 13 40 32 0 6 17 26 38 44 20 18 32 33 26 34 -6 0 -17 -7 -24 -15 -7 -8
-18 -15 -24 -15 -6 0 -66 -21 -134 -46 -67 -26 -124 -45 -127 -43 -4 5 1 29
45 209 16 63 38 169 50 235 13 66 25 125 29 132 4 8 20 1 50 -22 24 -19 47
-35 52 -35 10 0 127 -91 159 -124 14 -14 31 -26 38 -26 6 0 16 -9 22 -21 13
-23 1 -47 -50 -99 -33 -33 -83 -124 -73 -133 3 -3 -5 -21 -18 -39 -24 -34
-119 -187 -119 -192 0 -2 -37 -66 -82 -142 -94 -160 -108 -186 -144 -271 -15
-35 -32 -67 -38 -73 -14 -11 -104 44 -197 119 -31 25 -80 64 -109 86 -42 33
-230 230 -388 408 -47 53 -76 70 -110 62 -33 -7 -59 -53 -68 -119 -9 -64 68
-281 149 -421 45 -77 77 -124 90 -132 8 -4 22 -24 32 -43 23 -45 286 -303 340
-334 24 -13 74 -49 113 -80 l69 -56 247 0 c231 0 247 1 242 18 -3 9 -12 44
-20 77 -9 33 -23 87 -32 120 -14 52 -15 73 -4 160 36 303 153 613 311 823 22
29 37 57 33 63 -4 7 6 10 27 8 19 -1 42 2 52 6 26 11 97 -27 151 -81 24 -24
53 -44 63 -44 11 0 29 -11 41 -25 13 -14 26 -23 31 -20 5 2 11 -1 14 -9 3 -9
15 -12 31 -9 20 4 26 1 26 -12 0 -19 27 -44 47 -45 7 0 24 -11 39 -25 15 -14
30 -25 33 -25 3 0 14 14 23 30 12 21 25 30 42 30 16 0 49 24 102 73 108 100
134 126 134 137 0 21 16 8 28 -23 20 -49 128 -376 158 -475 43 -142 82 -206
209 -338 81 -85 109 -120 97 -123 -9 -2 -55 2 -102 8 -181 25 -348 11 -550
-46 -158 -44 -292 -156 -274 -228 l6 -25 794 0 794 0 0 25 c0 25 -40 99 -95
175 -18 25 -42 64 -53 86 -12 24 -78 96 -155 170 -124 119 -189 197 -342 410
-91 127 -174 252 -199 301 -98 190 -136 270 -136 284 0 9 12 25 28 34 52 34
272 289 272 316 0 8 16 28 36 44 36 30 218 246 261 311 22 32 22 33 3 39 -11
4 -18 10 -15 15 3 5 -4 14 -15 20 -11 6 -20 17 -20 24 0 8 -14 16 -32 19 -18
3 -60 13 -93 22 -33 10 -109 25 -170 34 l-110 16 0 31 c0 41 -25 67 -92 100
-31 15 -94 65 -148 116 l-94 89 26 57 c37 82 40 102 15 102 -12 0 -23 4 -26 9
-6 9 -168 27 -195 22 -8 -1 -22 -12 -32 -24 -9 -12 -21 -19 -25 -15 -4 5 1 17
12 29 19 21 19 21 -9 43 -15 11 -50 41 -78 66 l-50 45 20 125 c76 479 115 901
99 1060 -4 41 -5 109 -2 150 5 71 -4 141 -46 355 -9 46 -41 166 -46 173 -1 2
-11 -2 -23 -10 -16 -10 -23 -10 -33 0 -6 6 -18 12 -25 12 -16 0 -223 -167
-230 -186 -7 -18 -70 -57 -82 -50 -5 3 -49 65 -97 138 -49 72 -106 157 -126
187 -21 31 -38 59 -38 63 0 5 14 8 31 8 16 0 55 12 86 26 55 26 57 26 70 8 12
-16 15 -17 23 -4 5 8 10 18 10 23 0 4 11 74 24 155 14 81 25 171 24 200 0 47
-4 55 -33 77 -17 14 -39 25 -48 25 -10 0 -17 1 -17 3 0 2 -5 30 -11 62 -13 71
-44 135 -64 135 -9 0 -15 9 -15 24 0 13 -7 29 -15 36 -8 7 -15 18 -15 25 0 7
-10 15 -22 19 -13 3 -32 19 -43 36 -11 16 -28 30 -37 30 -10 0 -18 7 -18 15 0
8 -6 15 -14 15 -8 0 -17 7 -20 16 -4 10 -14 14 -26 11 -11 -3 -20 -2 -20 3 0
19 -171 40 -261 32z m298 -108 c44 -22 63 -39 90 -83 20 -31 47 -74 62 -96 14
-22 27 -49 28 -60 5 -45 15 -162 16 -190 2 -28 -1 -30 -30 -30 -22 0 -38 -7
-48 -22 -9 -12 -21 -20 -29 -17 -17 6 -121 -33 -136 -51 -7 -8 -23 -15 -36
-15 -12 0 -26 -4 -29 -10 -3 -5 -14 -10 -24 -10 -10 0 -39 -16 -64 -35 -25
-19 -52 -35 -59 -35 -7 -1 -31 -14 -53 -30 -42 -31 -56 -39 -115 -60 -58 -22
-119 -22 -281 -4 -85 9 -165 17 -179 17 -14 -1 -86 8 -161 18 -75 11 -151 19
-168 19 -17 0 -31 4 -31 8 0 22 213 201 371 313 57 40 106 75 109 78 19 22
221 166 295 210 50 30 97 60 105 66 8 7 43 23 77 37 55 22 69 23 148 16 62 -5
102 -15 142 -34z m263 -424 c0 -5 -7 -7 -15 -4 -8 4 -15 8 -15 10 0 2 7 4 15
4 8 0 15 -4 15 -10z m36 -80 c-3 -22 -9 -59 -12 -82 -3 -24 -10 -48 -15 -53
-4 -6 -11 -30 -15 -53 -7 -47 -39 -72 -92 -72 -15 0 -33 -5 -39 -11 -7 -7 -29
-13 -50 -14 -21 -1 -108 -20 -193 -42 -85 -23 -198 -49 -250 -59 -52 -9 -104
-21 -115 -27 -34 -19 -89 -37 -112 -37 -14 0 -23 -6 -23 -16 0 -8 -4 -12 -10
-9 -5 3 -10 15 -10 25 0 14 20 29 73 55 39 19 90 45 112 58 22 12 63 32 90 44
64 28 197 101 205 112 3 4 33 18 68 30 79 27 273 120 332 160 25 16 49 30 54
30 4 1 5 -17 2 -39z m-1 -281 c11 -17 -1 -21 -15 -4 -8 9 -8 15 -2 15 6 0 14
-5 17 -11z m-1514 -65 c37 -7 97 -16 135 -19 113 -10 267 -26 290 -30 14 -3
20 -12 19 -26 -1 -17 -12 -25 -46 -35 -24 -8 -54 -14 -67 -14 -13 0 -33 -5
-45 -12 -12 -6 -31 -12 -42 -13 -11 0 -74 -11 -140 -24 -66 -12 -142 -27 -170
-32 -161 -28 -262 -53 -279 -67 -13 -12 -20 -14 -23 -5 -3 8 -12 9 -26 4 -12
-5 -78 -21 -147 -36 -69 -15 -129 -31 -134 -36 -6 -5 -28 -9 -50 -9 l-41 1 35
29 c51 43 188 139 265 185 37 22 107 65 155 97 48 31 96 58 106 61 25 7 124
-2 205 -19z m1589 -468 c0 -3 -4 -8 -10 -11 -5 -3 -10 -1 -10 4 0 6 5 11 10
11 6 0 10 -2 10 -4z m-3499 -559 c68 -37 99 -60 104 -78 4 -10 20 -26 36 -35
52 -26 122 -84 182 -150 76 -83 236 -397 246 -484 4 -30 10 -60 14 -67 13 -21
11 -311 -2 -327 -15 -17 -66 -4 -75 20 -3 8 -12 14 -19 14 -38 0 -232 130
-243 162 -3 10 -11 18 -17 18 -11 0 -80 79 -132 153 -44 61 -82 132 -90 167
-4 19 -17 53 -28 75 -11 22 -21 59 -22 83 -1 27 -8 47 -19 55 -14 10 -18 27
-17 81 0 37 5 74 11 81 6 7 8 44 5 95 -4 64 -1 85 10 97 8 8 15 23 15 34 0 22
9 24 41 6z m2132 -604 c-7 -2 -19 -2 -25 0 -7 3 -2 5 12 5 14 0 19 -2 13 -5z
m-17 -110 c-11 -11 -17 4 -9 23 7 18 8 18 11 1 2 -10 1 -21 -2 -24z m1781
-423 l37 -20 -42 3 c-32 1 -42 6 -42 20 0 21 2 21 47 -3z m337 -314 c25 -19
70 -59 100 -90 30 -31 62 -56 71 -56 19 0 86 -37 97 -54 8 -12 -79 -106 -97
-106 -6 0 -34 28 -63 63 -28 34 -86 97 -130 141 l-80 78 17 29 c9 16 22 29 28
29 7 0 33 -15 57 -34z m322 -270 c8 -20 47 -33 134 -46 135 -19 230 -42 230
-56 0 -7 -15 -30 -32 -50 -18 -20 -76 -92 -128 -159 -200 -259 -349 -439 -397
-480 -18 -15 -33 -32 -33 -37 0 -6 -25 -39 -56 -72 -91 -98 -98 -107 -159
-186 -87 -114 -136 -164 -150 -154 -81 61 -490 321 -570 363 -44 23 -116 68
-160 101 -44 32 -119 85 -167 117 -48 32 -87 61 -88 64 0 10 89 20 115 13 38
-9 269 14 301 31 18 9 40 13 58 9 15 -3 47 -1 70 4 22 6 79 18 126 27 79 15
155 35 190 49 11 5 19 -3 28 -27 17 -46 18 -44 -36 -71 -27 -13 -54 -32 -62
-41 -12 -15 -10 -16 15 -13 23 2 30 -2 34 -19 14 -55 174 -127 308 -138 71 -7
84 -5 89 9 3 9 13 16 21 16 12 0 13 3 4 14 -7 8 -40 17 -74 21 -86 10 -286 75
-267 87 3 2 55 27 115 57 126 63 158 84 165 114 7 26 27 34 32 12 2 -12 10 -9
36 15 19 17 48 38 65 46 18 9 78 48 135 86 56 38 102 64 102 59 0 -5 -4 -13
-10 -16 -5 -3 -7 -18 -4 -33 3 -15 -2 -61 -10 -102 -21 -97 -20 -100 7 -100
13 0 30 6 39 13 18 14 38 134 38 227 0 60 0 60 -30 60 -20 0 -28 4 -24 13 2 7
-2 21 -10 32 -12 16 -17 18 -40 7 -24 -11 -27 -9 -56 33 l-30 44 22 12 c13 7
36 23 51 35 32 27 55 31 63 10z m-1606 -85 c0 -5 -9 -19 -20 -32 l-19 -24 -1
26 c0 14 3 29 7 32 9 10 33 8 33 -2z m-1493 -57 c6 -8 26 -52 44 -97 41 -104
56 -127 82 -127 40 0 3 -19 -43 -22 -40 -3 -45 -1 -50 22 -12 60 -101 160
-141 160 -26 0 -25 -4 21 -72 54 -82 67 -126 51 -180 -14 -44 -35 -67 -63 -68
-9 0 -40 32 -69 70 -37 48 -60 70 -75 70 -12 0 -24 7 -28 15 -3 9 0 15 10 15
9 0 14 3 12 8 -24 52 -61 113 -75 121 -17 9 -17 10 -1 16 10 4 15 11 12 16 -3
5 1 9 9 9 8 0 25 11 38 23 45 45 59 48 159 43 71 -4 98 -10 107 -22z m1058
-54 c26 6 46 5 59 -3 12 -6 29 -11 38 -12 9 -1 34 -20 55 -43 54 -58 63 -70
63 -83 0 -7 7 -20 15 -29 13 -15 12 -20 -11 -51 -15 -19 -24 -26 -21 -16 9 26
-6 21 -31 -10 -56 -71 -70 -90 -86 -120 -9 -18 -37 -58 -63 -90 -27 -32 -68
-87 -92 -123 -25 -36 -46 -67 -47 -69 -5 -5 -123 101 -289 260 -106 102 -140
130 -143 116 -5 -27 -27 -14 -27 16 -1 14 -9 35 -20 46 -10 12 -16 21 -13 21
3 0 36 11 74 25 38 14 76 25 86 25 9 0 18 5 20 10 2 6 27 13 56 17 28 3 52 10
52 15 0 5 8 8 18 7 25 -4 106 23 115 38 4 7 21 13 36 13 15 0 43 11 62 23 19
13 39 20 44 16 6 -4 28 -4 50 1z m-1427 -79 c17 -17 32 -34 32 -40 0 -5 7 -17
16 -25 14 -14 12 -20 -22 -56 -21 -22 -49 -43 -63 -47 -14 -3 -49 -19 -77 -35
l-51 -28 -37 40 c-21 24 -36 50 -36 65 0 32 24 90 40 100 17 10 142 55 155 55
6 0 25 -13 43 -29z m782 -182 c0 -4 -38 -28 -84 -54 -99 -55 -129 -84 -149
-145 -18 -56 -47 -65 -73 -23 -10 15 -30 48 -46 72 -28 45 -36 89 -19 107 5 5
11 22 13 38 3 26 6 28 53 31 107 5 201 18 225 31 23 12 27 11 52 -19 15 -18
28 -35 28 -38z m-640 -6 c46 -61 67 -81 114 -105 38 -20 39 -20 33 -68 -8 -64
-30 -106 -70 -130 -61 -37 -119 -22 -155 40 l-23 40 26 0 c14 0 25 6 25 13 0
9 12 14 29 15 33 1 81 23 100 46 12 14 9 16 -28 16 -22 0 -74 -11 -115 -25
-41 -14 -80 -22 -88 -19 -17 7 -78 83 -78 98 0 6 34 29 75 51 42 21 83 47 93
56 9 10 19 18 22 18 3 0 21 -21 40 -46z m250 -257 c0 -7 -8 -20 -17 -27 -15
-12 -16 -12 -10 4 4 10 7 23 7 28 0 5 5 9 10 9 6 0 10 -6 10 -14z m1805 -167
c11 -17 -1 -21 -15 -4 -8 9 -8 15 -2 15 6 0 14 -5 17 -11z m110 -99 c-20 -23
-29 -21 -19 4 3 9 13 16 22 16 13 0 12 -3 -3 -20z"/>
<path d="M1849 4069 c-9 -18 -6 -26 22 -55 17 -18 45 -36 60 -39 16 -4 79 -40
140 -81 62 -41 120 -74 130 -74 9 0 31 -8 48 -17 16 -10 33 -15 36 -11 15 15
-8 45 -52 68 -27 14 -85 51 -129 82 -45 32 -84 58 -88 58 -4 0 -36 20 -73 45
-36 25 -69 45 -74 45 -4 0 -13 -9 -20 -21z"/>
<path d="M1995 3850 c-3 -6 2 -13 12 -17 10 -4 46 -24 81 -45 58 -35 82 -41
82 -19 0 11 -138 91 -156 91 -7 0 -16 -5 -19 -10z"/>
<path d="M4176 5193 c-2 -2 -30 -6 -63 -7 -58 -3 -173 -48 -215 -84 -13 -11
-18 -11 -18 -3 0 7 -5 9 -10 6 -6 -4 -8 -10 -5 -15 3 -5 0 -12 -6 -15 -6 -4
-14 -17 -19 -29 l-9 -21 0 23 c-1 29 -17 28 -37 -3 -9 -14 -25 -25 -35 -25
-11 0 -24 -11 -31 -25 -6 -14 -15 -25 -20 -25 -4 0 -8 -8 -8 -18 0 -20 -29
-64 -30 -44 0 19 -20 14 -20 -5 0 -10 -14 -27 -30 -38 -17 -11 -37 -29 -45
-41 -20 -31 -55 -143 -55 -177 0 -17 -7 -39 -17 -49 -9 -11 -11 -18 -5 -18 7
0 12 -6 12 -14 0 -8 10 -16 22 -18 12 -2 27 -12 33 -24 5 -11 18 -28 27 -38
10 -9 21 -23 25 -30 21 -34 186 -87 271 -88 31 0 68 -5 81 -9 14 -6 28 -6 35
-1 6 5 46 12 88 15 46 3 86 12 100 21 12 9 34 16 49 16 15 0 29 7 33 15 3 8
16 15 30 15 14 0 27 4 30 9 4 5 34 25 69 45 90 51 173 141 217 236 50 106 61
137 67 176 5 40 4 44 -15 44 -40 0 -52 -11 -52 -47 0 -27 -5 -36 -20 -40 -11
-3 -23 -17 -26 -32 -15 -61 -162 -261 -192 -261 -6 0 -20 -13 -32 -29 -11 -17
-31 -33 -43 -36 -12 -4 -35 -13 -52 -20 -72 -33 -165 -65 -217 -73 -61 -9
-184 1 -243 20 l-39 13 3 67 c2 58 0 69 -18 80 -24 15 -27 28 -8 28 7 0 64 16
125 36 72 23 112 40 112 49 0 11 8 13 29 9 16 -4 32 -1 35 5 4 6 15 11 25 11
10 0 26 9 36 20 10 11 28 20 40 20 48 0 88 13 92 31 4 12 13 17 31 15 16 -2
40 7 60 21 18 14 38 23 45 20 26 -9 297 103 297 123 0 18 -43 60 -63 60 -16 0
-18 -5 -12 -27 l6 -28 -22 22 c-20 19 -21 24 -8 39 12 14 12 18 1 22 -8 2 -26
18 -40 34 -35 39 -71 57 -160 79 -66 17 -174 24 -186 12z m154 -62 c3 -4 27
-12 54 -19 48 -12 89 -36 134 -75 34 -31 32 -33 -48 -57 -62 -19 -190 -70
-246 -99 -34 -17 -69 -31 -77 -31 -16 0 -99 -41 -122 -60 -7 -6 -19 -8 -27 -5
-18 7 -128 -39 -128 -53 0 -10 -49 -23 -85 -22 -31 0 -138 -42 -152 -59 -19
-24 -16 1 7 62 31 83 169 267 200 267 7 0 29 12 49 28 20 15 57 38 84 52 26
13 47 27 47 30 0 3 16 6 35 7 20 1 41 5 48 10 7 5 37 10 66 11 30 1 64 8 74
15 19 13 77 11 87 -2z m-120 -320 c0 -6 -4 -13 -10 -16 -5 -3 -10 1 -10 9 0 9
5 16 10 16 6 0 10 -4 10 -9z m400 -11 c0 -5 -5 -10 -11 -10 -5 0 -7 5 -4 10 3
6 8 10 11 10 2 0 4 -4 4 -10z"/>
<path d="M4150 3821 c0 -5 5 -13 10 -16 6 -3 10 -2 10 4 0 5 -4 13 -10 16 -5
3 -10 2 -10 -4z"/>
<path d="M5783 3141 c-24 -21 -43 -42 -43 -46 0 -3 -12 -22 -26 -41 -23 -29
-25 -39 -18 -67 13 -43 63 -70 106 -55 38 13 102 79 139 143 47 82 43 88 -66
99 -47 5 -52 3 -92 -33z m134 -15 c-9 -7 -17 -18 -17 -25 0 -6 -12 -17 -27
-24 -16 -6 -43 -27 -61 -46 -49 -52 -48 -31 2 36 31 41 56 63 78 70 39 11 50
7 25 -11z"/>
</g>
</svg>
